<svg width="127" height="127" viewBox="0 0 127 127" fill="none" xmlns="http://www.w3.org/2000/svg">
<g id="rainbow-app-icon">
<g id="Rainbow">
<g id="outer">
<g id="outer_2">
<path d="M21.1641 40.2141H27.5141C60.2461 40.2141 86.7807 66.7487 86.7807 99.4807V105.831H99.4807C102.988 105.831 105.831 102.988 105.831 99.4807C105.831 56.2276 70.7672 21.1641 27.5141 21.1641C24.0071 21.1641 21.1641 24.0071 21.1641 27.5141V40.2141Z" fill="url(#paint0_radial_1268_18654)"/>
</g>
<g id="right cap">
<path d="M88.8984 99.4805H105.832C105.832 102.987 102.989 105.83 99.4818 105.83H88.8984V99.4805Z" fill="url(#paint1_linear_1268_18654)"/>
</g>
<path id="left cap" d="M27.5141 21.1641L27.5141 38.0974H21.1641L21.1641 27.5141C21.1641 24.0071 24.0071 21.1641 27.5141 21.1641Z" fill="url(#paint2_linear_1268_18654)"/>
</g>
<g id="middle">
<path id="middle_2" d="M21.1641 38.0977H27.5141C61.4151 38.0977 88.8974 65.5799 88.8974 99.481V105.831H69.8474V99.481C69.8474 76.1009 50.8941 57.1477 27.5141 57.1477H21.1641V38.0977Z" fill="url(#paint3_radial_1268_18654)"/>
<path id="right cap_2" d="M71.9609 99.4805H88.8943V105.83H71.9609V99.4805Z" fill="url(#paint4_linear_1268_18654)"/>
<path id="left cap_2" d="M21.1641 55.031L21.1641 38.0977L27.5141 38.0977L27.5141 55.031H21.1641Z" fill="url(#paint5_linear_1268_18654)"/>
</g>
<g id="inner">
<g id="inner_2">
<path d="M21.1641 65.6146C21.1641 69.1216 24.0071 71.9646 27.5141 71.9646C42.7111 71.9646 55.0307 84.2842 55.0307 99.4812C55.0307 102.988 57.8737 105.831 61.3807 105.831H71.9641V99.4812C71.9641 74.9322 52.0631 55.0312 27.5141 55.0312H21.1641V65.6146Z" fill="url(#paint6_radial_1268_18654)"/>
</g>
<g id="right cap_3">
<path d="M55.0312 99.4805H71.9646V105.83H61.3813C57.8742 105.83 55.0312 102.987 55.0312 99.4805Z" fill="url(#paint7_radial_1268_18654)"/>
</g>
<path id="left cap_3" d="M27.5141 71.9646C24.0071 71.9646 21.1641 69.1216 21.1641 65.6146L21.1641 55.0313L27.5141 55.0312L27.5141 71.9646Z" fill="url(#paint8_radial_1268_18654)"/>
</g>
</g>
</g>
<defs>
<radialGradient id="paint0_radial_1268_18654" cx="0" cy="0" r="1" gradientUnits="userSpaceOnUse" gradientTransform="translate(27.5141 99.4807) rotate(-90) scale(78.3167)">
<stop offset="0.770277" stop-color="#FF4000"/>
<stop offset="1" stop-color="#8754C9"/>
</radialGradient>
<linearGradient id="paint1_linear_1268_18654" x1="87.8401" y1="102.655" x2="105.832" y2="102.655" gradientUnits="userSpaceOnUse">
<stop stop-color="#FF4000"/>
<stop offset="1" stop-color="#8754C9"/>
</linearGradient>
<linearGradient id="paint2_linear_1268_18654" x1="24.3391" y1="21.1641" x2="24.3391" y2="39.1557" gradientUnits="userSpaceOnUse">
<stop stop-color="#8754C9"/>
<stop offset="1" stop-color="#FF4000"/>
</linearGradient>
<radialGradient id="paint3_radial_1268_18654" cx="0" cy="0" r="1" gradientUnits="userSpaceOnUse" gradientTransform="translate(27.5141 99.481) rotate(-90) scale(61.3833)">
<stop offset="0.723929" stop-color="#FFF700"/>
<stop offset="1" stop-color="#FF9901"/>
</radialGradient>
<linearGradient id="paint4_linear_1268_18654" x1="71.9609" y1="102.655" x2="88.8943" y2="102.655" gradientUnits="userSpaceOnUse">
<stop stop-color="#FFF700"/>
<stop offset="1" stop-color="#FF9901"/>
</linearGradient>
<linearGradient id="paint5_linear_1268_18654" x1="24.3391" y1="55.031" x2="24.3391" y2="38.0977" gradientUnits="userSpaceOnUse">
<stop stop-color="#FFF700"/>
<stop offset="1" stop-color="#FF9901"/>
</linearGradient>
<radialGradient id="paint6_radial_1268_18654" cx="0" cy="0" r="1" gradientUnits="userSpaceOnUse" gradientTransform="translate(27.5141 99.4812) rotate(-90) scale(44.45 44.45)">
<stop offset="0.59513" stop-color="#00AAFF"/>
<stop offset="1" stop-color="#01DA40"/>
</radialGradient>
<radialGradient id="paint7_radial_1268_18654" cx="0" cy="0" r="1" gradientUnits="userSpaceOnUse" gradientTransform="translate(53.9729 102.655) scale(17.9917 47.9778)">
<stop stop-color="#00AAFF"/>
<stop offset="1" stop-color="#01DA40"/>
</radialGradient>
<radialGradient id="paint8_radial_1268_18654" cx="0" cy="0" r="1" gradientUnits="userSpaceOnUse" gradientTransform="translate(24.3391 73.0229) rotate(-90) scale(17.9917 341.175)">
<stop stop-color="#00AAFF"/>
<stop offset="1" stop-color="#01DA40"/>
</radialGradient>
</defs>
</svg>
